<?xml version="1.0" encoding="utf-8"?>
<svg xmlns="http://www.w3.org/2000/svg">
    <svg id="delete" xmlns="http://www.w3.org/2000/svg" viewBox="0 0 32 32" width="64" height="64">
        <path style="text-indent:0;text-align:start;line-height:normal;text-transform:none;block-progression:tb;-inkscape-font-specification:Bitstream Vera Sans"
              d="M 13.59375 4 L 13.28125 4.28125 L 12.5625 5 L 6 5 L 6 7 L 7 7 L 7 25 C 7 26.645455 8.3545455 28 10 28 L 22 28 C 23.645455 28 25 26.645455 25 25 L 25 7 L 26 7 L 26 5 L 19.4375 5 L 18.71875 4.28125 L 18.40625 4 L 18 4 L 14 4 L 13.59375 4 z M 14.4375 6 L 17.5625 6 L 18.28125 6.71875 L 18.59375 7 L 19 7 L 23 7 L 23 25 C 23 25.554545 22.554545 26 22 26 L 10 26 C 9.4454545 26 9 25.554545 9 25 L 9 7 L 13 7 L 13.40625 7 L 13.71875 6.71875 L 14.4375 6 z M 11 11 L 11 22 L 13 22 L 13 11 L 11 11 z M 15 11 L 15 22 L 17 22 L 17 11 L 15 11 z M 19 11 L 19 22 L 21 22 L 21 11 L 19 11 z"
              overflow="visible" font-family="Bitstream Vera Sans"/>
    </svg>
    <svg id="drag" xmlns="http://www.w3.org/2000/svg" xmlns:xlink="http://www.w3.org/1999/xlink" x="0" y="0"
         version="1.1"
         viewBox="0 0 32 32" width="96" height="96">
        <g transform="">
            <g stroke="none" stroke-width="1" stroke-linecap="butt" stroke-linejoin="miter"
               stroke-miterlimit="10" stroke-dasharray="" stroke-dashoffset="0" font-family="none" font-weight="normal"
               font-size="12" text-anchor="start" mix-blend-mode="normal">
                <g>
                    <g>
                        <g>
                            <path d="M0,32l0,-32l32,0l0,32z" fill="none" font-family="sans-serif"/>
                            <g font-family="Bitstream Vera Sans">
                                <path d="M16,5l-4,4l8,0z M3,11l0,2l26,0l0,-2z M3,15l0,2l26,0l0,-2z M3,19l0,2l26,0l0,-2z M12,23l4,4l4,-4z"/>
                            </g>
                        </g>
                    </g>
                </g>
            </g>
        </g>
    </svg>
    <svg id="close" xmlns="http://www.w3.org/2000/svg" viewBox="0 0 32 32" width="64" height="64">
        <path style="text-indent:0;text-align:start;line-height:normal;text-transform:none;block-progression:tb;-inkscape-font-specification:Sans"
              d="M 5 5 L 5 6 L 5 26 L 5 27 L 6 27 L 26 27 L 27 27 L 27 26 L 27 6 L 27 5 L 26 5 L 6 5 L 5 5 z M 7 7 L 25 7 L 25 25 L 7 25 L 7 7 z M 11.6875 10.3125 L 10.28125 11.71875 L 14.5625 16 L 10.21875 20.34375 L 11.625 21.75 L 15.96875 17.40625 L 20.28125 21.71875 L 21.6875 20.3125 L 17.375 16 L 21.625 11.75 L 20.21875 10.34375 L 15.96875 14.59375 L 11.6875 10.3125 z"
              overflow="visible" font-family="Sans"/>
    </svg>
    <svg id="logout" xmlns="http://www.w3.org/2000/svg" viewBox="0 0 32 32" width="96" height="96">
        <path style="text-indent:0;text-align:start;line-height:normal;text-transform:none;block-progression:tb;-inkscape-font-specification:Sans"
              d="M 16 4 C 9.3845336 4 4 9.3845336 4 16 C 4 22.615466 9.3845336 28 16 28 C 20.051004 28 23.641038 25.989486 25.8125 22.90625 L 24.1875 21.75 C 22.376962 24.320764 19.388996 26 16 26 C 10.465466 26 6 21.534534 6 16 C 6 10.465466 10.465466 6 16 6 C 19.389176 6 22.376935 7.6791977 24.1875 10.25 L 25.8125 9.09375 C 23.641065 6.0105523 20.050824 4 16 4 z M 23.34375 11.28125 L 21.90625 12.71875 L 24.1875 15 L 12 15 L 12 17 L 24.1875 17 L 21.90625 19.28125 L 23.34375 20.71875 L 27.34375 16.71875 L 28.03125 16 L 27.34375 15.28125 L 23.34375 11.28125 z"
              overflow="visible" font-family="Sans"/>
    </svg>
    <svg id="menu" xmlns="http://www.w3.org/2000/svg" viewBox="0 0 32 32" width="96" height="96">
        <path style="text-indent:0;text-align:start;line-height:normal;text-transform:none;block-progression:tb;-inkscape-font-specification:Bitstream Vera Sans"
              d="M 4 7 L 4 9 L 28 9 L 28 7 L 4 7 z M 4 15 L 4 17 L 28 17 L 28 15 L 4 15 z M 4 23 L 4 25 L 28 25 L 28 23 L 4 23 z"
              overflow="visible" font-family="Bitstream Vera Sans"/>
    </svg>
    <svg id="upload" xmlns="http://www.w3.org/2000/svg" viewBox="0 0 32 32" width="64" height="64">
        <path d="M 16 7 C 13.35207 7 11.051929 8.2374781 9.40625 10.0625 C 9.2703551 10.046301 9.1477293 10 9 10 C 6.8026661 10 5 11.802666 5 14 C 3.2703261 15.054754 2 16.834851 2 19 C 2 22.301625 4.6983746 25 8 25 L 13 25 L 13 23 L 8 23 C 5.7796254 23 4 21.220375 4 19 C 4 17.338324 5.0091817 15.922353 6.4375 15.3125 L 7.125 15.03125 L 7.03125 14.28125 C 7.0103607 14.119051 7 14.025078 7 14 C 7 12.883334 7.8833339 12 9 12 C 9.14 12 9.2952692 12.02145 9.46875 12.0625 L 10.09375 12.21875 L 10.46875 11.71875 C 11.751887 10.073635 13.75001 9 16 9 C 19.27847 9 22.011594 11.253351 22.78125 14.28125 L 22.96875 15.0625 L 23.8125 15.03125 C 24.02413 15.019087 24.071091 15 24 15 C 26.220375 15 28 16.779625 28 19 C 28 21.220375 26.220375 23 24 23 L 19 23 L 19 25 L 24 25 C 27.301625 25 30 22.301625 30 19 C 30 15.842292 27.509852 13.314931 24.40625 13.09375 C 23.183479 9.5733113 19.926695 7 16 7 z M 16 15 L 12 19 L 15 19 L 15 27 L 17 27 L 17 19 L 20 19 L 16 15 z"/>
    </svg>
    <svg id="settings" xmlns="http://www.w3.org/2000/svg" viewBox="0 0 32 32" width="64" height="64">
        <path style="text-indent:0;text-align:start;line-height:normal;text-transform:none;block-progression:tb;-inkscape-font-specification:Bitstream Vera Sans"
              d="M 12.3125 4.53125 L 10.46875 5.28125 L 11.625 8.15625 C 10.172045 8.9708031 8.9708031 10.172045 8.15625 11.625 L 5.28125 10.46875 L 4.53125 12.3125 L 7.375 13.46875 C 7.1404613 14.269509 7 15.124932 7 16 C 7 16.875068 7.1404613 17.730491 7.375 18.53125 L 4.53125 19.6875 L 5.28125 21.53125 L 8.15625 20.375 C 8.9692617 21.825206 10.179164 23.02705 11.625 23.84375 L 10.46875 26.71875 L 12.3125 27.46875 L 13.46875 24.625 C 14.269784 24.861394 15.122974 25 16 25 C 16.875068 25 17.730491 24.859539 18.53125 24.625 L 19.6875 27.46875 L 21.53125 26.71875 L 20.375 23.84375 C 21.827955 23.029197 23.029197 21.827955 23.84375 20.375 L 26.71875 21.53125 L 27.46875 19.6875 L 24.625 18.53125 C 24.859539 17.730491 25 16.875068 25 16 C 25 15.124932 24.859539 14.269509 24.625 13.46875 L 27.46875 12.3125 L 26.71875 10.46875 L 23.84375 11.625 C 23.029197 10.172045 21.827955 8.9708031 20.375 8.15625 L 21.53125 5.28125 L 19.6875 4.53125 L 18.53125 7.375 C 17.730491 7.1404613 16.875068 7 16 7 C 15.124932 7 14.269509 7.1404613 13.46875 7.375 L 12.3125 4.53125 z M 16 9 C 19.877838 9 23 12.122162 23 16 C 23 19.877838 19.877838 23 16 23 C 12.122162 23 9 19.877838 9 16 C 9 12.122162 12.122162 9 16 9 z M 16 12 C 13.802706 12 12 13.802706 12 16 C 12 18.197294 13.802706 20 16 20 C 18.197294 20 20 18.197294 20 16 C 20 13.802706 18.197294 12 16 12 z M 16 14 C 17.116414 14 18 14.883586 18 16 C 18 17.116414 17.116414 18 16 18 C 14.883586 18 14 17.116414 14 16 C 14 14.883586 14.883586 14 16 14 z"/>
    </svg>
    <svg id="save" xmlns="http://www.w3.org/2000/svg" viewBox="0 0 32 32" width="64" height="64">
        <path style="text-indent:0;text-align:start;line-height:normal;text-transform:none;block-progression:tb;-inkscape-font-specification:Bitstream Vera Sans"
              d="M 5 5 L 5 6 L 5 26 L 5 27 L 6 27 L 26 27 L 27 27 L 27 26 L 27 10 L 27 9.59375 L 26.71875 9.28125 L 22.71875 5.28125 L 22.40625 5 L 22 5 L 6 5 L 5 5 z M 7 7 L 10 7 L 10 12 L 10 13 L 11 13 L 21 13 L 22 13 L 22 12 L 22 7.4375 L 25 10.4375 L 25 25 L 23 25 L 23 17 L 23 16 L 22 16 L 10 16 L 9 16 L 9 17 L 9 25 L 7 25 L 7 7 z M 12 7 L 16 7 L 16 9 L 18 9 L 18 7 L 20 7 L 20 11 L 12 11 L 12 7 z M 11 18 L 21 18 L 21 25 L 11 25 L 11 18 z"
              overflow="visible" font-family="Bitstream Vera Sans"/>
    </svg>
    <svg id="page" xmlns="http://www.w3.org/2000/svg" viewBox="0 0 32 32" width="96" height="96">
        <path style="text-indent:0;text-align:start;line-height:normal;text-transform:none;block-progression:tb;-inkscape-font-specification:Bitstream Vera Sans" d="M 6 4 L 6 5 L 6 27 L 6 28 L 7 28 L 25 28 L 26 28 L 26 27 L 26 5 L 26 4 L 25 4 L 7 4 L 6 4 z M 8 6 L 24 6 L 24 26 L 8 26 L 8 6 z M 10 9 L 10 11 L 22 11 L 22 9 L 10 9 z M 10 13 L 10 15 L 12 15 L 12 13 L 10 13 z M 14 13 L 14 15 L 22 15 L 22 13 L 14 13 z M 10 17 L 10 19 L 12 19 L 12 17 L 10 17 z M 14 17 L 14 19 L 22 19 L 22 17 L 14 17 z M 10 21 L 10 23 L 12 23 L 12 21 L 10 21 z M 14 21 L 14 23 L 22 23 L 22 21 L 14 21 z"/>
    </svg>
    <svg id="page2" xmlns="http://www.w3.org/2000/svg" viewBox="0 0 32 32" width="96" height="96">
        <path style="text-indent:0;text-align:start;line-height:normal;text-transform:none;block-progression:tb;-inkscape-font-specification:Bitstream Vera Sans"
              d="M 6 4 L 6 5 L 6 27 L 6 28 L 7 28 L 25 28 L 26 28 L 26 27 L 26 5 L 26 4 L 25 4 L 7 4 L 6 4 z M 8 6 L 24 6 L 24 26 L 8 26 L 8 6 z M 10 9 L 10 11 L 22 11 L 22 9 L 10 9 z M 10 13 L 10 15 L 18 15 L 18 13 L 10 13 z M 20 13 L 20 15 L 22 15 L 22 13 L 20 13 z M 10 17 L 10 19 L 14 19 L 14 17 L 10 17 z M 20 17 L 20 19 L 22 19 L 22 17 L 20 17 z M 10 21 L 10 23 L 16 23 L 16 21 L 10 21 z M 20 21 L 20 23 L 22 23 L 22 21 L 20 21 z"/>
    </svg>
    <svg id="add-page" xmlns="http://www.w3.org/2000/svg" xmlns:xlink="http://www.w3.org/1999/xlink" x="0" y="0"
         version="1.1"
         viewBox="0 0 32 32" width="64" height="64">
        <g stroke="none" stroke-width="1" stroke-linecap="butt" stroke-linejoin="miter"
           stroke-miterlimit="10" stroke-dasharray="" stroke-dashoffset="0" font-family="sans-serif"
           font-weight="normal" font-size="12" text-anchor="start" mix-blend-mode="normal">
            <g>
                <g>
                    <path d="M0,32l0,-32l32,0l0,32z" fill="none"/>
                    <g>
                        <path d="M14.83974,28l-7.83974,0l-1,0l0,-1l0,-22l0,-1l1,0l18,0l1,0l0,1l0,9.20229c-0.64669,-0.13262 -1.3156,-0.20229 -2,-0.20229l0,-8l-16,0l0,20l6.20229,0c0.14255,0.69514 0.35783,1.3646 0.63744,2z M19.65394,15l-5.65394,0l0,-2l8,0l0,1.20229c-0.82261,0.16869 -1.60926,0.43922 -2.34606,0.79771z M15.34872,19l-1.34872,0l0,-2l2.87554,0c-0.58831,0.59861 -1.10237,1.2704 -1.52682,2z M14.04999,23l-0.04999,0l0,-2l0.46249,0c-0.20329,0.64167 -0.34327,1.31081 -0.4125,2z M22,9l0,2l-12,0l0,-2z M12,13l0,2l-2,0l0,-2z M12,17l0,2l-2,0l0,-2z M12,21l0,2l-2,0l0,-2z"/>
                    </g>
                    <g>
                        <g>
                            <path d="M24,32c-4.4,0 -8,-3.6 -8,-8c0,-4.4 3.6,-8 8,-8c4.4,0 8,3.6 8,8c0,4.4 -3.6,8 -8,8z M24,18c-3.3,0 -6,2.7 -6,6c0,3.3 2.7,6 6,6c3.3,0 6,-2.7 6,-6c0,-3.3 -2.7,-6 -6,-6z M28,23l-3,0l0,-3l-2,0l0,3l-3,0l0,2l3,0l0,3l2,0l0,-3l3,0z"/>
                        </g>
                    </g>
                </g>
            </g>
        </g>
    </svg>
</svg>